# xmcd
#
# Track frame offsets: 
#        150
#        25655
#        51910
#        73267
#        105350
#        132605
#        155367
#        182509
#        210140
#        233775
#        262547
#        292167
#        324397
#
# Disc length: 4690 seconds
#
# Revision: 0
# Processed by: cddbd v1.5.2PL0 Copyright (c) Steve Scherf et al.
# Submitted via: ExactAudioCopy v1.0b3
#
DISCID=ad12500d
DTITLE=Various Artist - Fraternity Of House Vol. 1
DYEAR=1900
DGENRE=
TTITLE0=DJ Red 5 - Da Beat Goes... (Club Mix)
TTITLE1=J.A.M. In Deep - Bastard (Organ Mix)
TTITLE2=Exit Way - Back To The Promised Land (Progressive Rmx)
TTITLE3=Striking Man - My House (It´s Not Even Music) (Original Mix)
TTITLE4=Love And Fate - Love And Fate (Part 1)
TTITLE5=Danny Lee - (Here Comes The) Music! (First Edition)
TTITLE6=C-Mania - Cross My Mind (Xtd Mix)
TTITLE7=Mugato - How To Jazz (Club Mix)
TTITLE8=Cupido - Historias De Amor (Smokin´ Progressive Mix)
TTITLE9=Spacekid - 303 Goes Melody (Tribal House Rmx)
TTITLE10=Paul Zone and A Violent Life - Male Stripper (DJ Quicksilver Rm
TTITLE10=x)
TTITLE11=Zhi-Vago - Dreamer (Chuck Mellow Rmx)
TTITLE12=X-Zone - That's Right! (Crime In Club Mix)
EXTD=
EXTT0=
EXTT1=
EXTT2=
EXTT3=
EXTT4=
EXTT5=
EXTT6=
EXTT7=
EXTT8=
EXTT9=
EXTT10=
EXTT11=
EXTT12=
PLAYORDER=
